<?xml version="1.0" encoding="utf-8"?>
<!-- Generator: Adobe Illustrator 26.0.1, SVG Export Plug-In . SVG Version: 6.00 Build 0)  -->
<svg version="1.1" id="Layer_1" xmlns="http://www.w3.org/2000/svg" xmlns:xlink="http://www.w3.org/1999/xlink" x="0px" y="0px"
	 viewBox="0 0 194 54.7" style="enable-background:new 0 0 194 54.7;" xml:space="preserve">
<style type="text/css">
	.st0{enable-background:new    ;}
	.st1{fill:#FFFFFF;}
	.st2{fill:#4285F4;}
	.st3{fill:#34A853;}
	.st4{fill:#FBBC04;}
	.st5{fill:#EA4335;}
</style>
<g id="Group_12" transform="translate(0.5 0.5)">
	<g class="st0">
		<path class="st1" d="M56.2,36.4c-0.4,0.4-0.9,0.6-1.5,0.6c-0.3,0-0.7-0.1-1-0.2s-0.6-0.3-0.8-0.6s-0.4-0.5-0.5-0.9
			c-0.1-0.3-0.2-0.7-0.2-1.1c0-0.4,0.1-0.7,0.2-1c0.1-0.3,0.3-0.6,0.5-0.8s0.5-0.4,0.8-0.6c0.3-0.1,0.7-0.2,1-0.2
			c0.5,0,0.9,0.1,1.3,0.3c0.4,0.2,0.6,0.5,0.8,0.8L56,33.3c-0.1-0.3-0.3-0.5-0.6-0.6c-0.2-0.1-0.5-0.2-0.8-0.2c-0.2,0-0.4,0-0.6,0.1
			c-0.2,0.1-0.3,0.2-0.5,0.4c-0.1,0.2-0.2,0.4-0.3,0.6c-0.1,0.2-0.1,0.4-0.1,0.7c0,0.2,0,0.5,0.1,0.7s0.2,0.4,0.3,0.6
			c0.1,0.2,0.3,0.3,0.5,0.4c0.2,0.1,0.4,0.1,0.6,0.1c0.5,0,1-0.2,1.4-0.7V35h-1.1v-0.7h1.9V37H56v-0.6H56.2z"/>
		<path class="st1" d="M60.4,37c-0.4,0-0.7-0.1-1-0.2c-0.3-0.2-0.6-0.4-0.8-0.6s-0.4-0.5-0.5-0.9c-0.1-0.3-0.2-0.7-0.2-1
			c0-0.4,0.1-0.7,0.2-1c0.1-0.3,0.3-0.6,0.5-0.9c0.2-0.2,0.5-0.4,0.8-0.6c0.3-0.1,0.7-0.2,1-0.2c0.4,0,0.7,0.1,1,0.2
			c0.3,0.2,0.6,0.4,0.8,0.6c0.2,0.3,0.4,0.5,0.5,0.9s0.2,0.6,0.2,1s-0.1,0.7-0.2,1c-0.1,0.3-0.3,0.6-0.5,0.8s-0.5,0.4-0.8,0.6
			C61.2,37,60.8,37,60.4,37z M58.9,34.4c0,0.2,0,0.4,0.1,0.7s0.2,0.4,0.3,0.6c0.1,0.2,0.3,0.3,0.5,0.4s0.4,0.1,0.6,0.1
			c0.2,0,0.5-0.1,0.7-0.2c0.2-0.1,0.4-0.2,0.5-0.4s0.2-0.4,0.3-0.6c0.1-0.2,0.1-0.4,0.1-0.6c0-0.2,0-0.4-0.1-0.7
			c-0.1-0.2-0.2-0.4-0.3-0.6c-0.1-0.2-0.3-0.3-0.5-0.4c-0.2-0.1-0.4-0.1-0.6-0.1c-0.2,0-0.5,0.1-0.7,0.2s-0.4,0.2-0.5,0.4
			s-0.2,0.4-0.3,0.6C58.9,33.9,58.9,34.1,58.9,34.4z"/>
		<path class="st1" d="M66.3,37c-0.4,0-0.7-0.1-1-0.2c-0.3-0.2-0.6-0.4-0.8-0.6s-0.4-0.5-0.5-0.9c-0.1-0.3-0.2-0.7-0.2-1
			c0-0.4,0.1-0.7,0.2-1c0.1-0.3,0.3-0.6,0.5-0.9c0.2-0.2,0.5-0.4,0.8-0.6c0.3-0.1,0.7-0.2,1-0.2c0.4,0,0.7,0.1,1,0.2
			c0.3,0.2,0.6,0.4,0.8,0.6c0.2,0.3,0.4,0.5,0.5,0.9s0.2,0.6,0.2,1s-0.1,0.7-0.2,1s-0.3,0.6-0.5,0.8s-0.5,0.4-0.8,0.6
			C67,37,66.7,37,66.3,37z M64.8,34.4c0,0.2,0,0.4,0.1,0.7s0.2,0.4,0.3,0.6c0.1,0.2,0.3,0.3,0.5,0.4s0.4,0.1,0.6,0.1
			s0.5-0.1,0.7-0.2c0.2-0.1,0.4-0.2,0.5-0.4s0.2-0.4,0.3-0.6c0.1-0.2,0.1-0.4,0.1-0.6c0-0.2,0-0.4-0.1-0.7c-0.1-0.2-0.2-0.4-0.3-0.6
			c-0.1-0.2-0.3-0.3-0.5-0.4c-0.2-0.1-0.4-0.1-0.6-0.1s-0.5,0.1-0.7,0.2s-0.4,0.2-0.5,0.4s-0.2,0.4-0.3,0.6
			C64.8,33.9,64.8,34.1,64.8,34.4z"/>
		<path class="st1" d="M73.6,36.4c-0.4,0.4-0.9,0.6-1.5,0.6c-0.3,0-0.7-0.1-1-0.2s-0.6-0.3-0.8-0.6s-0.4-0.5-0.5-0.9
			c-0.1-0.3-0.2-0.7-0.2-1.1c0-0.4,0.1-0.7,0.2-1s0.3-0.6,0.5-0.8s0.5-0.4,0.8-0.6c0.3-0.1,0.7-0.2,1-0.2c0.5,0,0.9,0.1,1.3,0.3
			s0.6,0.5,0.8,0.8l-0.8,0.6c-0.1-0.3-0.3-0.5-0.6-0.6c-0.2-0.1-0.5-0.2-0.8-0.2c-0.2,0-0.4,0-0.6,0.1s-0.3,0.2-0.5,0.4
			c-0.1,0.2-0.2,0.4-0.3,0.6c-0.1,0.2-0.1,0.4-0.1,0.7c0,0.2,0,0.5,0.1,0.7s0.2,0.4,0.3,0.6c0.1,0.2,0.3,0.3,0.5,0.4
			c0.2,0.1,0.4,0.1,0.6,0.1c0.5,0,1-0.2,1.4-0.7V35h-1.1v-0.7h1.9V37h-0.8v-0.6H73.6z"/>
		<path class="st1" d="M75.6,37v-5.3h1v4.4h2.7V37H75.6z"/>
		<path class="st1" d="M83.9,36.1V37h-3.7v-5.3h3.6v0.9h-2.6v1.3h2.2v0.8h-2.2v1.4C81.2,36.1,83.9,36.1,83.9,36.1z"/>
		<path class="st1" d="M87,37v-5.3h2.3c0.2,0,0.5,0.1,0.7,0.2c0.2,0.1,0.4,0.2,0.5,0.4s0.3,0.4,0.3,0.6s0.1,0.4,0.1,0.6
			c0,0.3-0.1,0.7-0.3,0.9c-0.2,0.3-0.4,0.5-0.7,0.6l1.2,2H90l-1-1.8h-1V37H87z M88,34.3h1.3c0.1,0,0.2,0,0.3-0.1
			c0.1,0,0.2-0.1,0.2-0.2c0.1-0.1,0.1-0.2,0.1-0.3s0.1-0.2,0.1-0.3s0-0.2-0.1-0.3c0-0.1-0.1-0.2-0.2-0.3s-0.1-0.1-0.2-0.2
			c-0.1,0-0.2-0.1-0.3-0.1H88V34.3z"/>
		<path class="st1" d="M93.6,31.7h0.9l2,5.3h-1.1L95,35.7h-1.8L92.6,37h-1.1L93.6,31.7z M94.8,35L94,32.9L93.3,35H94.8z"/>
		<path class="st1" d="M100.8,32.6h-1.7V37h-1v-4.4h-1.7v-0.9h4.4C100.8,31.7,100.8,32.6,100.8,32.6z"/>
		<path class="st1" d="M101.7,37v-5.3h1V37H101.7z"/>
		<path class="st1" d="M105.1,33.6V37h-1v-5.3h0.8l2.7,3.5v-3.5h1V37h-0.8L105.1,33.6z"/>
		<path class="st1" d="M113.7,36.4c-0.4,0.4-0.9,0.6-1.5,0.6c-0.3,0-0.7-0.1-1-0.2s-0.6-0.3-0.8-0.6s-0.4-0.5-0.5-0.9
			s-0.2-0.7-0.2-1.1c0-0.4,0.1-0.7,0.2-1s0.3-0.6,0.5-0.8s0.5-0.4,0.8-0.6c0.3-0.1,0.7-0.2,1-0.2c0.5,0,0.9,0.1,1.3,0.3
			s0.6,0.5,0.8,0.8l-0.8,0.6c-0.1-0.3-0.3-0.5-0.6-0.6c-0.2-0.1-0.5-0.2-0.8-0.2c-0.2,0-0.4,0-0.6,0.1s-0.3,0.2-0.5,0.4
			s-0.2,0.4-0.3,0.6c-0.1,0.2-0.1,0.4-0.1,0.7c0,0.2,0,0.5,0.1,0.7s0.2,0.4,0.3,0.6c0.1,0.2,0.3,0.3,0.5,0.4
			c0.2,0.1,0.4,0.1,0.6,0.1c0.5,0,1-0.2,1.4-0.7V35h-1.1v-0.7h1.9V37h-0.8v-0.6H113.7z"/>
	</g>
	<g class="st0">
		<path class="st1" d="M154.9,31.8h-1.2v3.7c0,1.2-0.8,1.7-1.7,1.7s-1.8-0.6-1.8-1.7v-3.7h-6.1c-1.2,0-1.8-1-1.8-2
			c0-0.3,0-0.6,0.2-0.9l6.9-16c0.3-0.7,0.9-1,1.5-1c1.1,0,1.8,0.8,1.8,1.7c0,0.3,0,0.5-0.1,0.7l-6.1,14h3.7v-2.5
			c0-1.2,0.9-1.7,1.7-1.7c0.9,0,1.7,0.6,1.7,1.7v2.5h1.2c1.2,0,1.7,0.9,1.7,1.7C156.7,30.9,156.1,31.8,154.9,31.8z"/>
		<path class="st1" d="M161.1,37.2c-0.9,0-1.7-0.6-1.7-1.7v-0.8c0-1.2,0.9-1.7,1.7-1.7c0.9,0,1.7,0.6,1.7,1.7v0.8
			C162.9,36.6,162,37.2,161.1,37.2z"/>
		<path class="st1" d="M172.9,37.2h-0.4c-3.9,0-6-3.4-6-5.3c0-1.1,0.9-1.7,1.8-1.7c0.8,0,1.5,0.5,1.7,1.4c0.2,1.2,1.3,2.2,2.6,2.2
			h0.4c1.4,0,2.6-1.2,2.6-2.6v-3.9c-0.5,0.4-1.7,0.8-2.6,0.8h-0.4c-3.3,0-6-2.7-6-6V18c0-3.3,2.7-6,6-6h0.4c3.3,0,6,2.7,6,6v13.2
			C178.9,34.5,176.2,37.2,172.9,37.2z M175.5,17.9c0-1.4-1.2-2.6-2.6-2.6h-0.4c-1.4,0-2.6,1.2-2.6,2.6v4.2c0,1.4,1.2,2.6,2.6,2.6
			h0.4c1.4,0,2.6-1.2,2.6-2.6V17.9z"/>
	</g>
	<path class="st1" d="M179.8,53.5H13.2c-7.6,0-13.8-6.2-13.8-13.8V13.2c0-7.6,6.2-13.8,13.8-13.8h166.5c7.6,0,13.8,6.2,13.8,13.8
		v26.5C193.5,47.3,187.3,53.5,179.8,53.5z M13.2,0.5c-7,0-12.8,5.7-12.8,12.8v26.5c0,7,5.7,12.8,12.8,12.8h166.5
		c7,0,12.8-5.7,12.8-12.8V13.2c0-7-5.7-12.8-12.8-12.8H13.2V0.5z"/>
	<g id="G" transform="translate(13 13)">
		<path id="Path" class="st2" d="M26,13.3c0-0.9-0.1-1.8-0.2-2.6H13.2v4.9h7.2c-0.3,1.6-1.3,3-2.7,3.9v3.2H22
			C24.7,20.3,26.1,16.9,26,13.3z"/>
		<path id="Path-2" class="st3" d="M13.1,26c3.2,0.1,6.3-1.1,8.7-3.2l-4.2-3.3c-1.3,0.9-2.9,1.3-4.4,1.3c-3.4-0.1-6.3-2.2-7.3-5.4
			H1.4v3.4C3.6,23.2,8.1,26,13.1,26z"/>
		<path id="Path-3" class="st4" d="M5.7,15.2c-0.5-1.6-0.5-3.3,0-4.9V7H1.4c-1.8,3.7-1.8,8,0,11.6L5.7,15.2z"/>
		<path id="Path-4" class="st5" d="M13.3,5.2c1.9,0,3.7,0.7,5.1,2l3.8-3.8C19.8,1.2,16.6,0,13.3,0c-5,0-9.6,2.8-11.9,7.3l4.4,3.4
			C6.9,7.5,9.9,5.3,13.3,5.2z"/>
	</g>
	<g class="st0">
		<path class="st1" d="M61.2,22.3l0.8,4l-3.5-2l-3.5,2l0.8-4l-3-2.7l4-0.4l1.7-3.7l1.7,3.7l4,0.4L61.2,22.3z"/>
		<path class="st1" d="M74,22.3l0.8,4l-3.5-2l-3.5,2l0.8-4l-3-2.7l4-0.4l1.7-3.7l1.7,3.7l4,0.4L74,22.3z"/>
		<path class="st1" d="M86.7,22.3l0.8,4l-3.5-2l-3.5,2l0.8-4l-3-2.7l4-0.4l1.7-3.7l1.7,3.7l4,0.4L86.7,22.3z"/>
		<path class="st1" d="M99.4,22.3l0.8,4l-3.5-2l-3.5,2l0.8-4l-3-2.7l4-0.4l1.7-3.7l1.7,3.7l4,0.4L99.4,22.3z"/>
		<path class="st1" d="M112.1,22.3l0.8,4l-3.5-2l-3.5,2l0.8-4l-3-2.7l4-0.4l1.7-3.7l1.7,3.7l4,0.4L112.1,22.3z"/>
	</g>
	<rect x="129" y="-0.2" class="st1" width="1" height="54.5"/>
</g>
</svg>
